<?xml version="1.0" encoding="UTF-8"?>
<svg xmlns="http://www.w3.org/2000/svg" xmlns:xlink="http://www.w3.org/1999/xlink" width="50pt" height="50pt" viewBox="0 0 50 50" version="1.1">
<g id="surface1">
<path style=" stroke:none;fill-rule:nonzero;fill:rgb(0%,0%,0%);fill-opacity:1;" d="M 24.710938 44.097656 C 22.214844 44.097656 19.722656 44.160156 17.230469 44.097656 C 15.074219 44.027344 12.992188 43.753906 11.039062 42.746094 C 8.148438 41.269531 6.460938 38.839844 5.726562 35.675781 C 5.523438 34.464844 5.382812 33.191406 5.382812 31.972656 C 5.382812 27.058594 5.382812 22.085938 5.382812 17.171875 C 5.382812 14.882812 5.789062 12.65625 7 10.703125 C 8.820312 7.609375 11.648438 6.0625 15.148438 5.65625 C 19.316406 5.1875 23.5 5.453125 27.597656 5.382812 C 29.753906 5.382812 31.972656 5.453125 34.128906 5.65625 C 39.519531 6.125 43.417969 10.164062 43.824219 15.613281 C 44.230469 20.933594 44.027344 26.328125 44.027344 31.636719 C 44.027344 33.722656 43.824219 35.746094 43.019531 37.699219 C 41.535156 41.066406 38.980469 43.019531 35.410156 43.824219 C 34.199219 44.097656 32.988281 44.160156 31.777344 44.230469 C 29.417969 44.160156 27.058594 44.097656 24.710938 44.097656 Z M 40.324219 24.503906 C 40.324219 21.546875 40.457031 18.3125 39.988281 15.074219 C 39.582031 12.453125 38.238281 10.640625 35.613281 9.695312 C 33.863281 9.085938 31.972656 9.15625 30.160156 9.085938 C 26.519531 9.023438 22.816406 9.023438 19.183594 9.085938 C 17.769531 9.085938 16.359375 9.15625 14.945312 9.359375 C 12.246094 9.828125 10.304688 11.371094 9.492188 14.140625 C 9.023438 15.949219 9.023438 17.769531 8.953125 19.59375 C 8.890625 23.019531 8.890625 26.386719 8.953125 29.824219 C 9.023438 31.433594 8.953125 33.050781 9.289062 34.667969 C 9.898438 37.425781 11.515625 39.246094 14.34375 39.917969 C 16.152344 40.394531 17.976562 40.324219 19.722656 40.324219 C 24.167969 40.457031 28.617188 40.457031 33.050781 40.191406 C 34.066406 40.121094 35.074219 39.917969 36.011719 39.519531 C 38.839844 38.300781 39.917969 36.011719 40.121094 33.191406 C 40.394531 30.425781 40.324219 27.597656 40.324219 24.503906 Z M 40.324219 24.503906 "/>
<path style=" stroke:none;fill-rule:nonzero;fill:rgb(0%,0%,0%);fill-opacity:1;" d="M 24.636719 34.800781 C 19.113281 34.800781 14.679688 30.292969 14.679688 24.769531 C 14.679688 19.460938 18.921875 14.738281 24.710938 14.738281 C 30.222656 14.738281 34.738281 19.113281 34.738281 24.710938 C 34.738281 30.425781 30.089844 34.871094 24.636719 34.800781 Z M 18.441406 24.710938 C 18.441406 28.269531 21.066406 30.902344 24.566406 31.035156 C 28.003906 31.167969 30.964844 28.269531 30.964844 24.839844 C 30.964844 21.34375 28.207031 18.441406 24.769531 18.441406 C 21.210938 18.441406 18.441406 21.210938 18.441406 24.710938 Z M 18.441406 24.710938 "/>
<path style=" stroke:none;fill-rule:nonzero;fill:rgb(0%,0%,0%);fill-opacity:1;" d="M 32.511719 14.476562 C 32.511719 13.195312 33.660156 12.054688 34.941406 12.054688 C 36.285156 12.054688 37.363281 13.121094 37.363281 14.476562 C 37.363281 15.816406 36.214844 16.96875 34.871094 16.96875 C 33.660156 16.898438 32.511719 15.757812 32.511719 14.476562 Z M 32.511719 14.476562 "/>
</g>
</svg>
