<?xml version="1.0" encoding="utf-8"?>
<!-- Generator: Adobe Illustrator 21.0.0, SVG Export Plug-In . SVG Version: 6.00 Build 0)  -->
<svg version="1.1" id="Capa_1" xmlns="http://www.w3.org/2000/svg" xmlns:xlink="http://www.w3.org/1999/xlink" x="0px" y="0px"
	 viewBox="0 0 443.3 186" style="enable-background:new 0 0 443.3 186;" xml:space="preserve">
<style type="text/css">
	.st0{opacity:0.25;fill:#F375D9;}
	.st1{fill:#606060;}
	.st2{opacity:0.5;fill:#606060;}
	.st3{fill:url(#SVGID_1_);}
	.st4{fill:#F9F9F9;}
	.st5{fill:url(#SVGID_2_);}
	.st6{fill:url(#SVGID_3_);}
	.st7{fill:url(#SVGID_4_);}
	.st8{fill:url(#SVGID_5_);}
	.st9{fill:url(#SVGID_6_);}
	.st10{fill:url(#SVGID_7_);}
	.st11{fill:url(#SVGID_8_);}
	.st12{fill:url(#SVGID_9_);}
	.st13{fill:url(#SVGID_10_);}
	.st14{fill:url(#SVGID_11_);}
	.st15{fill:url(#SVGID_12_);}
	.st16{fill:url(#SVGID_13_);}
	.st17{fill:url(#SVGID_14_);}
	.st18{fill:url(#SVGID_15_);}
	.st19{fill:url(#SVGID_16_);}
	.st20{fill:url(#SVGID_17_);}
	.st21{fill:url(#SVGID_18_);}
	.st22{fill:url(#SVGID_19_);}
	.st23{fill:url(#SVGID_20_);}
	.st24{fill:url(#SVGID_21_);}
	.st25{fill:url(#SVGID_22_);}
	.st26{fill:url(#SVGID_23_);}
	.st27{fill:url(#SVGID_24_);}
	.st28{fill:url(#SVGID_25_);}
	.st29{fill:url(#SVGID_26_);}
	.st30{fill:url(#SVGID_27_);}
	.st31{fill:url(#SVGID_28_);}
	.st32{fill:url(#SVGID_29_);}
	.st33{fill:url(#SVGID_30_);}
	.st34{fill:url(#SVGID_31_);}
	.st35{fill:url(#SVGID_32_);}
	.st36{fill:url(#SVGID_33_);}
	.st37{fill:url(#SVGID_34_);}
	.st38{fill:url(#SVGID_35_);}
	.st39{fill:url(#SVGID_36_);}
	.st40{fill:url(#SVGID_37_);}
	.st41{fill:url(#SVGID_38_);}
	.st42{fill:url(#SVGID_39_);}
	.st43{fill:url(#SVGID_40_);}
	.st44{fill:url(#SVGID_41_);}
	.st45{fill:url(#SVGID_42_);}
	.st46{fill:url(#SVGID_43_);}
	.st47{fill:url(#SVGID_44_);}
	.st48{fill:url(#SVGID_45_);}
	.st49{fill:url(#SVGID_46_);}
	.st50{fill:url(#SVGID_47_);}
	.st51{fill:url(#SVGID_48_);}
	.st52{fill:url(#SVGID_49_);}
	.st53{fill:url(#SVGID_50_);}
	.st54{fill:url(#SVGID_51_);}
	.st55{fill:url(#SVGID_52_);}
	.st56{fill:url(#SVGID_53_);}
	.st57{fill:url(#SVGID_54_);}
	.st58{fill:url(#SVGID_55_);}
	.st59{fill:url(#SVGID_56_);}
	.st60{fill:url(#SVGID_57_);}
	.st61{fill:url(#SVGID_58_);}
	.st62{fill:url(#SVGID_59_);}
	.st63{fill:url(#SVGID_60_);}
	.st64{fill:url(#SVGID_61_);}
	.st65{fill:url(#SVGID_62_);}
	.st66{fill:url(#SVGID_63_);}
	.st67{fill:url(#SVGID_64_);}
	.st68{fill:url(#SVGID_65_);}
	.st69{fill:url(#SVGID_66_);}
	.st70{fill:url(#SVGID_67_);}
	.st71{fill:url(#SVGID_68_);}
	.st72{fill:url(#SVGID_69_);}
	.st73{fill:url(#SVGID_70_);}
	.st74{fill:url(#SVGID_71_);}
	.st75{fill:url(#SVGID_72_);}
	.st76{fill:url(#SVGID_73_);}
	.st77{fill:url(#SVGID_74_);}
	.st78{fill:url(#SVGID_75_);}
	.st79{fill:url(#SVGID_76_);}
	.st80{fill:url(#SVGID_77_);}
	.st81{fill:url(#SVGID_78_);}
	.st82{fill:url(#SVGID_79_);}
	.st83{fill:url(#SVGID_80_);}
	.st84{fill:url(#SVGID_81_);}
	.st85{fill:url(#SVGID_82_);}
	.st86{fill:url(#SVGID_83_);}
	.st87{fill:url(#SVGID_84_);}
	.st88{fill:url(#SVGID_85_);}
	.st89{fill:url(#SVGID_86_);}
	.st90{fill:url(#SVGID_87_);}
	.st91{fill:url(#SVGID_88_);}
	.st92{fill:url(#SVGID_89_);}
	.st93{fill:url(#SVGID_90_);}
	.st94{fill:url(#SVGID_91_);}
	.st95{fill:url(#SVGID_92_);}
	.st96{fill:url(#SVGID_93_);}
	.st97{fill:url(#SVGID_94_);}
	.st98{fill:url(#SVGID_95_);}
	.st99{fill:url(#SVGID_96_);}
	.st100{fill:url(#SVGID_97_);}
	.st101{fill:url(#SVGID_98_);}
	.st102{fill:url(#SVGID_99_);}
	.st103{fill:url(#SVGID_100_);}
	.st104{fill:url(#SVGID_101_);}
	.st105{fill:url(#SVGID_102_);}
	.st106{fill:url(#SVGID_103_);}
	.st107{fill:url(#SVGID_104_);}
	.st108{fill:url(#SVGID_105_);}
	.st109{fill:url(#SVGID_106_);}
	.st110{fill:url(#SVGID_107_);}
	.st111{fill:url(#SVGID_108_);}
	.st112{fill:url(#SVGID_109_);}
	.st113{fill:url(#SVGID_110_);}
	.st114{fill:url(#SVGID_111_);}
	.st115{fill:url(#SVGID_112_);}
	.st116{fill:url(#SVGID_113_);}
	.st117{fill:url(#SVGID_114_);}
	.st118{fill:url(#SVGID_115_);}
	.st119{fill:url(#SVGID_116_);}
	.st120{fill:url(#SVGID_117_);}
	.st121{fill:url(#SVGID_118_);}
	.st122{fill:url(#SVGID_119_);}
	.st123{fill:url(#SVGID_120_);}
	.st124{fill:url(#SVGID_121_);}
	.st125{fill:url(#SVGID_122_);}
	.st126{fill:url(#SVGID_123_);}
	.st127{fill:url(#SVGID_124_);}
	.st128{fill:url(#SVGID_125_);}
	.st129{fill:url(#SVGID_126_);}
	.st130{fill:url(#SVGID_127_);}
	.st131{fill:url(#SVGID_128_);}
	.st132{fill:url(#SVGID_129_);}
	.st133{fill:url(#SVGID_130_);}
	.st134{fill:url(#SVGID_131_);}
	.st135{fill:url(#SVGID_132_);}
	.st136{fill:url(#SVGID_133_);}
	.st137{fill:url(#SVGID_134_);}
	.st138{fill:url(#SVGID_135_);}
	.st139{fill:url(#SVGID_136_);}
	.st140{fill:url(#SVGID_137_);}
	.st141{fill:url(#SVGID_138_);}
	.st142{fill:url(#SVGID_139_);}
	.st143{fill:url(#SVGID_140_);}
	.st144{fill:url(#SVGID_141_);}
	.st145{fill:url(#SVGID_142_);}
	.st146{fill:url(#SVGID_143_);}
	.st147{fill:url(#SVGID_144_);}
	.st148{fill:url(#SVGID_145_);}
	.st149{fill:url(#SVGID_146_);}
	.st150{fill:url(#SVGID_147_);}
	.st151{fill:url(#SVGID_148_);}
	.st152{fill:url(#SVGID_149_);}
	.st153{fill:url(#SVGID_150_);}
	.st154{fill:#FFFFFF;stroke:#000000;stroke-width:5;stroke-miterlimit:10;}
	.st155{fill:#AE00B8;}
	.st156{fill:#FFFFFF;stroke:#F375D9;stroke-width:0.5;stroke-miterlimit:10;}
	.st157{stroke:#000000;stroke-miterlimit:10;}
	.st158{opacity:0.35;fill:#606060;}
	.st159{stroke:#FFFFFF;stroke-width:5;stroke-miterlimit:10;}
	.st160{clip-path:url(#SVGID_154_);}
	.st161{fill:#FAFAFA;}
	.st162{fill:url(#SVGID_157_);}
	.st163{fill:url(#SVGID_158_);}
	.st164{fill:url(#SVGID_159_);}
	.st165{fill:url(#SVGID_160_);}
	.st166{fill:url(#SVGID_161_);}
	.st167{fill:url(#SVGID_162_);}
	.st168{opacity:0.3;fill:#FFFFFF;}
	.st169{fill:url(#SVGID_163_);}
	.st170{fill:url(#SVGID_164_);}
	.st171{fill:url(#SVGID_165_);}
	.st172{fill:#FFE673;}
	.st173{fill:#FFEB8E;}
	.st174{fill:#F375D9;}
	.st175{fill:#E1A470;}
	.st176{fill:#F0B885;}
	.st177{fill:#D4975C;}
	.st178{fill:url(#SVGID_166_);}
	.st179{fill:#FFFFFF;}
	.st180{fill:#D5F3FB;}
	.st181{fill:#E7F7FB;}
	.st182{fill:url(#SVGID_167_);}
	.st183{fill:#959595;}
	.st184{fill:#C7C7C7;}
	.st185{fill:url(#SVGID_168_);}
	.st186{fill:url(#SVGID_169_);}
	.st187{fill:url(#SVGID_170_);}
	.st188{fill:#F0F0F3;}
	.st189{fill:#E1DEF3;}
	.st190{fill:url(#SVGID_171_);}
	.st191{fill:url(#SVGID_172_);}
	.st192{fill:url(#SVGID_173_);}
	.st193{fill:url(#SVGID_174_);}
	.st194{fill:url(#SVGID_175_);}
	.st195{fill:url(#SVGID_176_);}
	.st196{fill:url(#SVGID_177_);}
	.st197{fill:url(#SVGID_178_);}
	.st198{fill:url(#SVGID_179_);}
	.st199{fill:url(#SVGID_180_);}
	.st200{fill:url(#SVGID_181_);}
	.st201{fill:url(#SVGID_182_);}
	.st202{fill:url(#SVGID_183_);}
	.st203{fill:url(#SVGID_184_);}
	.st204{clip-path:url(#SVGID_186_);}
	.st205{clip-path:url(#SVGID_190_);}
	.st206{fill:url(#SVGID_197_);}
	.st207{fill:url(#SVGID_198_);}
	.st208{fill:url(#SVGID_199_);}
	.st209{fill:url(#SVGID_200_);}
	.st210{fill:url(#SVGID_201_);}
	.st211{fill:url(#SVGID_202_);}
	.st212{fill:url(#SVGID_203_);}
	.st213{fill:url(#SVGID_204_);}
	.st214{clip-path:url(#SVGID_206_);}
	.st215{clip-path:url(#SVGID_210_);}
	.st216{clip-path:url(#SVGID_216_);}
	.st217{fill:#00C700;}
	.st218{fill:url(#SVGID_219_);}
	.st219{fill:url(#SVGID_220_);}
	.st220{fill:#EBF1FF;}
	.st221{fill:url(#SVGID_221_);}
	.st222{fill:url(#SVGID_222_);}
	.st223{fill:#DFDFDF;}
	.st224{fill:url(#SVGID_223_);}
	.st225{clip-path:url(#SVGID_225_);}
	.st226{clip-path:url(#SVGID_229_);}
</style>
<g>
	<path d="M50.1,95.8l55.3-52.6c0.9-0.9,2-1.5,3.1-2c1.1-0.4,2.2-0.7,3.4-0.7c1.3,0,2.5,0.3,3.7,0.8c1.2,0.5,2.3,1.3,3.3,2.3
		c0.9,0.9,1.5,2,1.9,3.1c0.4,1.1,0.6,2.3,0.5,3.5c-0.1,1.2-0.4,2.4-0.9,3.6C119.8,55,119,56,118,57L78.2,94.6l40.7,41.5
		c1,1,1.7,2.1,2.1,3.3c0.4,1.2,0.7,2.4,0.7,3.6c0,1.2-0.2,2.4-0.7,3.5c-0.5,1.1-1.2,2.2-2.1,3.1c-0.9,0.9-1.9,1.6-3,2.1
		c-1.1,0.4-2.2,0.7-3.4,0.7c-1.2,0-2.3-0.2-3.4-0.7c-1.1-0.5-2.1-1.2-3.1-2.2l-41.4-42l-14.5,13.8V143c0,1.3-0.2,2.5-0.7,3.7
		c-0.5,1.2-1.2,2.2-2.1,3c-0.9,0.8-1.9,1.5-3,2c-1.1,0.5-2.4,0.7-3.7,0.7c-1.3,0-2.5-0.2-3.7-0.7c-1.2-0.5-2.2-1.1-3-2
		c-0.8-0.8-1.5-1.8-2-3c-0.5-1.2-0.7-2.4-0.7-3.7V49.9c0-1.3,0.2-2.6,0.7-3.7c0.5-1.1,1.2-2.1,2-2.9c0.8-0.8,1.8-1.5,3-2
		c1.2-0.5,2.4-0.7,3.7-0.7c1.3,0,2.6,0.2,3.7,0.7c1.1,0.5,2.1,1.2,3,2c0.9,0.8,1.6,1.8,2.1,2.9c0.5,1.1,0.7,2.4,0.7,3.7V95.8z"/>
	<path d="M147.4,113.2c0,3,0.5,5.8,1.6,8.3c1.1,2.6,2.6,4.9,4.5,6.8c1.9,1.9,4.1,3.4,6.7,4.5c2.6,1.1,5.4,1.7,8.3,1.7
		c3,0,5.7-0.6,8.1-1.7c2.4-1.1,4.4-2.7,6.1-4.6c1.7-2,2.9-4.2,3.8-6.9c0.9-2.6,1.4-5.4,1.4-8.4V80.6c0-1.3,0.3-2.6,0.8-3.7
		c0.5-1.1,1.2-2.1,2.1-3c0.9-0.8,1.9-1.5,3.1-2c1.2-0.5,2.4-0.7,3.7-0.7c1.3,0,2.6,0.2,3.7,0.7c1.1,0.5,2.1,1.2,2.9,2
		c0.8,0.8,1.5,1.8,2,3c0.5,1.1,0.7,2.4,0.7,3.7v32.1c0,5.6-0.9,10.9-2.8,15.8c-1.9,5-4.5,9.3-7.9,13c-3.4,3.7-7.4,6.6-12.1,8.8
		c-4.7,2.2-9.9,3.2-15.5,3.2s-10.8-1.1-15.7-3.2c-4.9-2.1-9.1-5-12.7-8.7c-3.6-3.7-6.5-8-8.6-12.8c-2.1-4.9-3.1-10.1-3.1-15.6V80.6
		c0-1.3,0.2-2.6,0.7-3.7c0.5-1.1,1.2-2.1,2-3s1.8-1.5,3-2c1.2-0.5,2.4-0.7,3.7-0.7c1.3,0,2.5,0.2,3.7,0.7c1.2,0.5,2.2,1.2,3.1,2
		c0.9,0.8,1.6,1.8,2.1,3c0.5,1.1,0.7,2.4,0.7,3.7V113.2z"/>
	<path d="M247.4,133.4c1.3,0,2.6,0.3,3.8,0.8c1.2,0.5,2.2,1.2,3,2.1c0.8,0.9,1.5,1.9,1.9,3.1c0.5,1.2,0.7,2.4,0.7,3.7
		c0,2.7-0.9,4.9-2.6,6.6s-4,2.6-6.7,2.6c-4,0-7.7-0.7-11.1-2c-3.5-1.3-6.5-3.2-9.1-5.6c-2.6-2.4-4.7-5.3-6.2-8.6
		c-1.5-3.4-2.3-7.1-2.4-11.2V49.3c0-1.3,0.2-2.6,0.7-3.8c0.5-1.2,1.1-2.2,2-3s1.8-1.5,2.9-2c1.1-0.5,2.3-0.7,3.6-0.7
		c1.3,0,2.6,0.2,3.8,0.7c1.2,0.5,2.2,1.2,3.1,2c0.9,0.8,1.6,1.8,2.1,3c0.5,1.2,0.8,2.4,0.8,3.8v75.1c0,3,0.9,5.3,2.8,6.8
		C242,132.7,244.4,133.4,247.4,133.4z"/>
	<path d="M303.8,108l26.8,28.6c0.9,0.9,1.5,1.9,2,3.1c0.4,1.2,0.7,2.4,0.7,3.6c0,1.2-0.2,2.4-0.7,3.6c-0.5,1.2-1.2,2.2-2.2,3.1
		c-1.9,1.7-4,2.6-6.6,2.6c-1.2,0-2.4-0.2-3.6-0.7c-1.2-0.5-2.2-1.2-3.1-2.2l-26.6-29.1l-7.7,7.3v15.3c0,1.3-0.2,2.5-0.7,3.6
		c-0.5,1.1-1.2,2.1-2,2.9c-0.8,0.8-1.8,1.5-2.9,2c-1.1,0.5-2.3,0.7-3.6,0.7c-1.3,0-2.5-0.2-3.7-0.7c-1.2-0.5-2.2-1.1-3.1-2
		c-0.9-0.8-1.6-1.8-2.1-2.9s-0.8-2.3-0.8-3.6V49c0-1.3,0.3-2.5,0.8-3.6c0.5-1.1,1.2-2.1,2.1-2.9c0.9-0.8,1.9-1.5,3.1-2
		c1.2-0.5,2.4-0.7,3.7-0.7c1.3,0,2.6,0.2,3.7,0.7c1.1,0.5,2.1,1.2,2.9,2c0.8,0.8,1.5,1.8,2,2.9c0.5,1.1,0.7,2.3,0.7,3.6v53.9
		l29.8-29.2c0.9-0.9,1.8-1.5,2.9-1.9c1-0.4,2.1-0.6,3.2-0.6c1.2,0,2.3,0.2,3.5,0.7c1.2,0.5,2.3,1.3,3.3,2.3c0.9,0.9,1.5,2,2,3.1
		c0.5,1.1,0.7,2.3,0.7,3.5c0,1.2-0.3,2.4-0.7,3.5c-0.5,1.1-1.2,2.1-2.1,3L303.8,108z"/>
	<path d="M333.8,111.8c0-5.8,1.1-11.2,3.3-16.2c2.2-5,5.2-9.4,9-13.2c3.8-3.8,8.2-6.8,13.2-9c5-2.2,10.4-3.3,16.1-3.3
		c5.8,0,11.2,1.1,16.3,3.3c5.1,2.2,9.5,5.2,13.2,9c3.8,3.8,6.7,8.2,8.9,13.2c2.2,5,3.2,10.4,3.2,16.2c0,5.7-1.1,11.1-3.2,16.2
		c-2.2,5.1-5.1,9.5-8.9,13.3c-3.8,3.8-8.2,6.8-13.2,9c-5.1,2.2-10.5,3.3-16.3,3.3c-5.7,0-11.1-1.1-16.1-3.3c-5-2.2-9.5-5.2-13.2-9
		c-3.8-3.8-6.8-8.2-9-13.3C335,122.9,333.8,117.5,333.8,111.8z M352.8,111.8c0,3.1,0.6,6,1.8,8.8c1.2,2.8,2.8,5.2,4.9,7.3
		s4.5,3.7,7.2,4.9c2.7,1.2,5.7,1.8,8.8,1.8s6.1-0.6,8.9-1.8c2.8-1.2,5.2-2.8,7.2-4.9c2-2.1,3.6-4.5,4.8-7.3c1.2-2.8,1.7-5.7,1.7-8.8
		c0-3.1-0.6-6.1-1.7-8.9c-1.2-2.8-2.8-5.2-4.8-7.2c-2-2-4.4-3.7-7.2-4.8c-2.8-1.2-5.7-1.8-8.9-1.8c-3.1,0-6,0.6-8.8,1.8
		c-2.8,1.2-5.2,2.8-7.3,4.8c-2.1,2-3.7,4.4-4.9,7.2C353.4,105.7,352.8,108.6,352.8,111.8z"/>
</g>
</svg>
